<svg class="svg-icon" style="width: 1em; height: 1em;vertical-align: middle;fill: currentColor;overflow: hidden;" viewBox="0 0 1024 1024" version="1.1" xmlns="http://www.w3.org/2000/svg">
<path id="ios-today-1" d="M776 64H248c-66.2 0-120 53.8-120 120v656c0 66.2 53.8 120 120 120h528c66.2 0 120-53.8 120-120V184c0-66.2-53.8-120-120-120z m64 776c0 35.2-28.8 64-64 64H248c-35.2 0-64-28.8-64-64V184c0-35.2 28.8-64 64-64h528c35.2 0 64 28.8 64 64v656z"  />
<path id="ios-today-2" d="M720 352H304c-26.4 0-48 21.6-48 48v384c0 26.4 21.6 48 48 48h416c26.4 0 48-21.6 48-48V400c0-26.4-21.6-48-48-48z m-436-104h200c15.4 0 28-12.6 28-28s-12.6-28-28-28H284c-15.4 0-28 12.6-28 28s12.6 28 28 28z"  />
</svg>