<svg class="svg-icon" style="width: 1em; height: 1em;vertical-align: middle;fill: currentColor;overflow: hidden;" viewBox="0 0 1024 1024" version="1.1" xmlns="http://www.w3.org/2000/svg">
<path id="p-1" d="M512 96C282.2 96 96 282.2 96 512s186.2 416 416 416c229.8 0 416-186.2 416-416S741.8 96 512 96zM512 893.4c-210.2 0-381.4-171-381.4-381.4S301.8 130.6 512 130.6 893.4 301.8 893.4 512 722.2 893.4 512 893.4z"  />
<path id="p-2" d="M528.2 256 494.6 256 494.6 495.8 256 495.8 256 529.4 494.6 529.4 494.6 768 528.2 768 528.2 529.4 768 529.4 768 495.8 528.2 495.8Z"  />
</svg>