<svg class="svg-icon"  viewBox="0 0 1024 1024" version="1.1" xmlns="http://www.w3.org/2000/svg">
	<path id="ios-cloud-download" d="M874.2 331.6C858 181.2 730.8 64 576 64c-102.4 0-192.6 51.2-246.8 129.4-16.6-6.8-34.8-10.6-53.8-10.6-78.2 0-141.6 68.8-142.8 146.8C52.8 355 0 433 0 515 0 615.4 81.4 704 181.8 704H486V422c0-14.4 11.6-26 26-26s26 11.6 26 26v282h304.2c100.4 0 181.8-88.6 181.8-189 0-89.4-64.6-168.2-149.8-183.4zM486 871.8l-95.8-94.4c-10.2-10-26.6-10-36.8 0.2-10 10.2-10 26.6 0.2 36.8l140 138c5 4.8 11.6 7.4 18.2 7.4 3.4 0 6.8-0.6 10-2 3-1.2 5.8-3.2 8.2-5.4l140-138c10.2-10 10.4-26.6 0.2-36.8-10-10.2-26.6-10.4-36.8-0.2L538 871.8V704h-52v167.8z"  />
</svg>