<svg class="svg-icon" style="width: 1em; height: 1em;vertical-align: middle;fill: currentColor;overflow: hidden;" viewBox="0 0 1024 1024" version="1.1" xmlns="http://www.w3.org/2000/svg">
<path id="ios-paper" d="M248 160v644c0 15.4-12.6 28-28 28s-28-12.6-28-28V224H160c-35.4 0-64 28.6-64 64v576c0 35.4 28.6 64 64 64h706.2c34 0 61.8-27.6 61.8-61.8V160c0-35.4-28.6-64-64-64l-556 4c-35.4 0-60 24.6-60 60z m132 64h168c15.4 0 28 12.6 28 28s-12.6 28-28 28h-168c-15.4 0-28-12.6-28-28s12.6-28 28-28z m0 320h296c15.4 0 28 12.6 28 28s-12.6 28-28 28H380c-15.4 0-28-12.6-28-28s12.6-28 28-28z m392 216H380c-15.4 0-28-12.6-28-28s12.6-28 28-28h392c15.4 0 28 12.6 28 28s-12.6 28-28 28z m0-320H380c-15.4 0-28-12.6-28-28s12.6-28 28-28h392c15.4 0 28 12.6 28 28s-12.6 28-28 28z"  />
</svg>