<svg class="svg-icon" viewBox="0 0 1024 1024" version="1.1" xmlns="http://www.w3.org/2000/svg">
  <path id="ios-compass-1" d="M561 561l-98-98c-1.8-1.8-5-1.4-6.4 0.8l-99 197c-2.2 3.6 2 7.8 5.6 5.6l197-99c2.2-1.4 2.6-4.6 0.8-6.4z"  />
  <path id="ios-compass-2" d="M512 96C282.2 96 96 282.2 96 512s186.2 416 416 416 416-186.2 416-416S741.8 96 512 96z m81.2 498.6L274 755.6c-3.6 2.2-7.8-2-5.6-5.6l161.2-319.2c0.4-0.6 0.8-1 1.4-1.4L750 268.4c3.6-2.2 7.8 2 5.6 5.6l-161.2 319.2c-0.2 0.6-0.6 1-1.2 1.4z"  />
  </svg>