<svg class="svg-icon" viewBox="0 0 1024 1024" version="1.1" xmlns="http://www.w3.org/2000/svg">
	<path id="ios-time" d="M512 64C264.6 64 64 264.6 64 512c0 247.4 200.6 448 448 448 247.4 0 448-200.6 448-448C960 264.6 759.4 64 512 64zM512 144c8.8 0 16 7.2 16 16s-7.2 16-16 16-16-7.2-16-16S503.2 144 512 144zM160 528c-8.8 0-16-7.2-16-16 0-8.8 7.2-16 16-16s16 7.2 16 16C176 520.8 168.8 528 160 528zM215.2 701.8c-7.6 4.4-17.4 1.8-21.8-5.8-4.4-7.6-1.8-17.4 5.8-21.8 7.6-4.4 17.4-1.8 21.8 5.8C225.4 687.6 222.8 697.4 215.2 701.8zM221 344c-4.4 7.6-14.2 10.2-21.8 5.8-7.6-4.4-10.2-14.2-5.8-21.8s14.2-10.2 21.8-5.8C222.8 326.6 225.4 336.4 221 344zM328 193.4c7.6-4.4 17.4-1.8 21.8 5.8 4.4 7.6 1.8 17.4-5.8 21.8-7.6 4.4-17.4 1.8-21.8-5.8C317.8 207.6 320.4 197.8 328 193.4zM349.8 824.8c-4.4 7.6-14.2 10.2-21.8 5.8-7.6-4.4-10.2-14.2-5.8-21.8 4.4-7.6 14.2-10.2 21.8-5.8S354.2 817.2 349.8 824.8zM512 880c-8.8 0-16-7.2-16-16s7.2-16 16-16 16 7.2 16 16S520.8 880 512 880zM528 539.8 528 784c0 8.8-7.2 16-16 16-8.8 0-16-7.2-16-16L496 539.6c-4.8-2.8-8.8-6.6-11.8-11.6-6-10.4-5.4-23 0.4-32.6l-75.2-125.8c-4.6-7.6-2-17.4 5.4-22 7.6-4.6 17.4-2 22 5.4l76 126.8c10.8 0.2 21.2 6 26.8 16C548.6 511.4 543.4 530.8 528 539.8zM696 830.6c-7.6 4.4-17.4 1.8-21.8-5.8-4.4-7.6-1.8-17.4 5.8-21.8 7.6-4.4 17.4-1.8 21.8 5.8C706.2 816.4 703.6 826.2 696 830.6zM701.8 215.2c-4.4 7.6-14.2 10.2-21.8 5.8-7.6-4.4-10.2-14.2-5.8-21.8 4.4-7.6 14.2-10.2 21.8-5.8C703.6 197.8 706.2 207.6 701.8 215.2zM830.6 696c-4.4 7.6-14.2 10.2-21.8 5.8-7.6-4.4-10.2-14.2-5.8-21.8 4.4-7.6 14.2-10.2 21.8-5.8C832.4 678.6 835.2 688.4 830.6 696zM824.8 349.8c-7.6 4.4-17.4 1.8-21.8-5.8-4.4-7.6-1.8-17.4 5.8-21.8 7.6-4.4 17.4-1.8 21.8 5.8C835.2 335.6 832.4 345.4 824.8 349.8zM864 528c-8.8 0-16-7.2-16-16 0-8.8 7.2-16 16-16s16 7.2 16 16C880 520.8 872.8 528 864 528z"  />
	</svg>