<svg class="svg-icon" style="width: 1em; height: 1em;vertical-align: middle;fill: currentColor;overflow: hidden;" viewBox="0 0 1024 1024" version="1.1" xmlns="http://www.w3.org/2000/svg">
<path id="ios-notifications" d="M511.8 912c62.2 0 96.2-44 96.2-106h-192.6c0 62 34 106 96.4 106zM824 704.4c-30.8-40.6-91.4-64.4-91.4-246.2 0-186.6-82.4-261.6-159.2-279.6-7.2-1.8-12.4-4.2-12.4-11.8v-5.8c0-26.8-22-49.4-48.8-49.2-26.8-0.4-48.8 22.4-48.8 49.2v5.8c0 7.4-5.2 10-12.4 11.8-77 18.2-159.2 93-159.2 279.6 0 181.8-60.6 205.4-91.4 246.2-19.8 26.2-1 63.6 31.8 63.6h560.2c32.6 0 51.4-37.6 31.6-63.6z" fill="" />
</svg>