<svg class="svg-icon" viewBox="0 0 1024 1024" version="1.1" xmlns="http://www.w3.org/2000/svg">
	<path id="ios-exit" d="M288 272v214h359.8l-94.4-95.8c-10-10.2-10-26.6 0.2-36.8 10.2-10 26.6-10 36.8 0.2l138 140c4.8 5 7.4 11.6 7.4 18.2 0 3.4-0.6 6.8-2 10-1.2 3-3.2 5.8-5.4 8.2l-138 140c-10 10.2-26.6 10.4-36.8 0.2-10.2-10-10.4-26.6-0.2-36.8l94.4-95.8H288v214c0 44 36 80 80 80h480c44 0 80-36 80-80V272c0-44-36-80-80-80H368c-44 0-80 36-80 80zM122 486c-14.4 0-26 11.6-26 26s11.6 26 26 26h166v-52H122z"  />
</svg>