<svg class="svg-icon" style="width: 1em; height: 1em;vertical-align: middle;fill: currentColor;overflow: hidden;" viewBox="0 0 1024 1024" version="1.1" xmlns="http://www.w3.org/2000/svg">
	<path id="path-1" d="M752 352H538v293.2c0 14-10.8 26-24.8 26.8-15 0.8-27.2-11.2-27.2-26V352H272c-44 0-80 36-80 80v416c0 44 36 80 80 80h480c44 0 80-36 80-80V432c0-44-36-80-80-80zM538 184.2l95.8 94.4c10.2 10 26.6 10 36.8-0.2 10-10.2 10-26.6-0.2-36.8l-140-138c-5-4.8-11.6-7.4-18.2-7.4-3.4 0-6.8 0.6-10 2-3 1.2-5.8 3.2-8.2 5.4l-140 138c-10.2 10-10.4 26.6-0.2 36.8 10 10.2 26.6 10.4 36.8 0.2L486 184.2V352h52V184.2z"  />
	</svg>