<svg class="svg-icon" style="width: 1em; height: 1em;vertical-align: middle;fill: currentColor;overflow: hidden;" viewBox="0 0 1024 1024" version="1.1" xmlns="http://www.w3.org/2000/svg">
	<path id="p-1" d="M512 96C282.2 96 96 282.2 96 512s186.2 416 416 416 416-186.2 416-416S741.8 96 512 96zM152 512c0-96.2 37.4-186.6 105.4-254.6S415.8 152 512 152c96.2 0 186.6 37.4 254.6 105.4 64.4 64.4 101.4 149 105.2 239.4-17.6-20.6-48.4-48-87.6-48-55 0-83.4 51.4-102 85.4-2.8 5-5.4 9.8-7.8 14-22.8 38.4-54.6 60-85 57.8-26.8-1.8-49.6-22.4-64.4-57.6-18.4-44.2-58.2-91.6-105.8-98.4-22.6-3.2-56.2 1.6-89.4 42.8-6.4 8-13.8 18.8-22.2 31.2-20.8 31-52.4 77.6-76.2 81.6-34.6 5.6-61.8-15-72.8-24.6-4.4-22.4-6.6-45.6-6.6-69z"  />
</svg>