<svg class="svg-icon" style="width: 1em;height: 1em;vertical-align: middle;fill: currentColor;overflow: hidden;" viewBox="0 0 1024 1024" version="1.1" xmlns="http://www.w3.org/2000/svg">
<path id="iphone" d="M682.666667 42.666667H341.333333a128 128 0 0 0-128 128v682.666666a128 128 0 0 0 128 128h341.333334a128 128 0 0 0 128-128V170.666667a128 128 0 0 0-128-128z m0 853.333333H341.333333a42.666667 42.666667 0 0 1-42.666666-42.666667V170.666667a42.666667 42.666667 0 0 1 42.666666-42.666667 42.666667 42.666667 0 0 1 42.666667 42.666667 42.666667 42.666667 0 0 0 42.666667 42.666666h170.666666a42.666667 42.666667 0 0 0 42.666667-42.666666 42.666667 42.666667 0 0 1 42.666667-42.666667 42.666667 42.666667 0 0 1 42.666666 42.666667v682.666666a42.666667 42.666667 0 0 1-42.666666 42.666667z"  />
</svg>