<svg class="svg-icon"  viewBox="0 0 1024 1024" version="1.1" xmlns="http://www.w3.org/2000/svg">
	<path id="path-1" d="M350.523077 393.846154c7.876923 0 15.753846-3.938462 19.692308-7.876923l118.153846-118.153846v393.846153c0 15.753846 11.815385 31.507692 31.507692 31.507693s31.507692-11.815385 31.507692-31.507693v-393.846153l118.153847 118.153846c11.815385 11.815385 31.507692 11.815385 43.323076 0s11.815385-31.507692 0-43.323077l-169.353846-169.353846c-3.938462-3.938462-3.938462-3.938462-7.876923-3.938462H523.815385 512c-3.938462 0-7.876923 3.938462-7.876923 3.938462L326.892308 342.646154c-11.815385 11.815385-11.815385 27.569231 0 39.384615 7.876923 7.876923 15.753846 11.815385 23.630769 11.815385z" />
	<path id="path-2" d="M854.646154 445.046154c-15.753846 0-31.507692 11.815385-31.507692 31.507692v216.615385c0 43.323077-35.446154 82.707692-82.707693 82.707692H295.384615c-43.323077 0-82.707692-35.446154-82.707692-82.707692V472.615385c0-15.753846-11.815385-31.507692-31.507692-31.507693s-23.630769 15.753846-23.630769 31.507693v216.615384c0 78.769231 63.015385 141.784615 141.784615 141.784616h445.046154c78.769231 0 141.784615-63.015385 141.784615-141.784616V472.615385c0-15.753846-15.753846-27.569231-31.507692-27.569231z"/>
	</svg>